<?xml version="1.0" standalone="no"?>
<!DOCTYPE svg PUBLIC "-//W3C//DTD SVG 20010904//EN"
 "http://www.w3.org/TR/2001/REC-SVG-20010904/DTD/svg10.dtd">
<svg version="1.0" xmlns="http://www.w3.org/2000/svg"
 width="114.000000pt" height="83.000000pt" viewBox="0 0 114.000000 83.000000"
 preserveAspectRatio="xMidYMid meet">

<g transform="translate(0.000000,83.000000) scale(0.100000,-0.100000)"
fill="#000000" stroke="none">
<path d="M841 752 c-148 -55 -155 -58 -163 -89 -17 -64 -28 -45 -28 47 l0 91
-86 -3 -87 -3 -61 -212 c-34 -117 -64 -214 -67 -218 -3 -3 -35 93 -70 212
l-65 218 -97 3 c-53 1 -97 -1 -97 -5 0 -4 56 -159 124 -343 l124 -335 337 -3
c204 -1 352 2 374 8 132 35 190 173 114 268 -16 20 -46 46 -66 57 -20 11 -38
28 -40 37 -5 16 -20 18 -145 18 -100 0 -142 4 -150 13 -16 19 -23 69 -14 101
7 26 20 33 164 85 87 31 162 61 169 68 12 12 6 43 -8 42 -4 0 -77 -26 -162
-57z m-231 -292 c0 -200 -4 -310 -10 -310 -6 0 -10 107 -10 300 l0 300 -27 0
c-28 0 -28 0 -113 -300 -53 -188 -90 -300 -97 -300 -7 0 -13 6 -13 13 0 11 89
329 151 540 l20 67 49 0 50 0 0 -310z m-42 -22 l-3 -283 -83 -3 c-76 -3 -83
-1 -78 15 23 77 136 524 136 537 0 9 7 16 15 16 13 0 15 -36 13 -282z m135 30
c5 -15 20 -18 94 -19 l88 -1 -62 -15 c-35 -8 -63 -20 -63 -26 0 -7 6 -38 14
-69 l13 -57 -26 -3 c-25 -3 -26 -6 -29 -76 l-3 -72 -34 0 -35 0 0 128 c0 71
-3 165 -7 208 l-6 79 25 -30 c13 -16 27 -38 31 -47z m307 -40 c110 -56 123
-183 27 -258 -16 -12 -30 -21 -32 -18 -2 2 9 25 26 51 16 26 29 51 29 56 0 16
-102 73 -121 68 -15 -4 -19 3 -25 42 -4 25 -11 54 -16 64 -8 15 -4 17 30 17
21 0 58 -10 82 -22z m-149 -59 c9 -39 4 -49 -20 -49 -26 0 -46 77 -22 83 28 8
35 2 42 -34z m53 -81 c-4 -7 -15 -24 -23 -37 l-15 -24 -6 23 c-3 15 -16 27
-30 31 -24 6 -24 6 5 11 59 10 77 9 69 -4z m86 -13 c6 -8 10 -20 7 -27 -4 -8
-6 -7 -6 5 -1 22 -19 22 -43 0 -26 -23 -23 -53 5 -54 17 -1 18 -2 4 -6 -21 -5
-47 13 -47 34 0 15 44 63 58 63 5 0 15 -7 22 -15z m-182 -67 c9 -34 5 -58 -8
-39 -3 7 -14 9 -23 5 -14 -5 -15 -1 -7 28 6 18 10 34 10 35 0 2 4 3 10 3 5 0
13 -15 18 -32z m115 -33 c55 -32 49 -45 -20 -45 l-43 0 0 41 c0 22 3 38 8 36
4 -2 29 -17 55 -32z"/>
<path d="M827 393 c-3 -5 -2 -15 2 -22 7 -10 10 -10 16 -1 4 6 3 16 -3 22 -5
5 -12 6 -15 1z"/>
<path d="M830 340 c0 -5 4 -10 9 -10 6 0 13 5 16 10 3 6 -1 10 -9 10 -9 0 -16
-4 -16 -10z"/>
<path d="M790 205 c0 -8 4 -15 10 -15 5 0 7 7 4 15 -4 8 -8 15 -10 15 -2 0 -4
-7 -4 -15z"/>
<path d="M727 630 c-18 -14 -27 -31 -27 -50 0 -19 9 -36 27 -50 24 -19 37 -20
152 -18 l126 3 0 65 0 65 -126 3 c-115 2 -128 1 -152 -18z m213 -20 c0 -6 -36
-10 -89 -10 -50 0 -93 5 -96 10 -4 6 28 10 89 10 57 0 96 -4 96 -10z m40 -30
c0 -6 -37 -10 -91 -10 -57 0 -88 4 -84 10 3 6 44 10 91 10 49 0 84 -4 84 -10z
m-50 -40 c0 -6 -33 -10 -79 -10 -44 0 -83 5 -86 10 -4 6 25 10 79 10 51 0 86
-4 86 -10z"/>
<path d="M270 88 c0 -4 5 -19 11 -35 l11 -28 15 28 c8 16 12 32 8 35 -3 3 -9
-4 -12 -17 l-6 -23 -13 23 c-7 13 -13 21 -14 17z"/>
<path d="M540 60 c0 -23 4 -30 20 -30 28 0 37 28 14 45 -28 21 -34 18 -34 -15z
m40 -4 c0 -3 -4 -8 -10 -11 -5 -3 -10 -1 -10 4 0 6 5 11 10 11 6 0 10 -2 10
-4z"/>
<path d="M740 76 c0 -8 6 -17 13 -19 9 -4 8 -8 -3 -16 -13 -9 -13 -11 2 -11
24 0 30 16 12 30 -12 11 -12 15 -2 21 10 7 9 9 -4 9 -10 0 -18 -6 -18 -14z"/>
<path d="M381 70 c-17 -10 -7 -40 14 -40 8 0 15 9 15 19 0 24 -12 32 -29 21z"/>
<path d="M654 72 c3 -6 2 -13 -4 -17 -17 -11 -11 -25 11 -25 15 0 20 5 17 22
-2 12 -9 23 -17 26 -8 3 -11 0 -7 -6z"/>
<path d="M470 50 c0 -26 6 -26 13 0 3 11 1 20 -4 20 -5 0 -9 -9 -9 -20z"/>
<path d="M834 50 c1 -8 9 -16 19 -18 12 -3 17 3 16 20 -1 17 -3 18 -6 6 -5
-21 -20 -24 -26 -5 -2 7 -3 6 -3 -3z"/>
<path d="M930 50 c0 -26 6 -26 13 0 3 11 1 20 -4 20 -5 0 -9 -9 -9 -20z"/>
<path d="M1004 59 c-8 -13 5 -29 24 -29 15 0 15 2 2 10 -13 8 -12 10 4 10 11
0 16 3 12 7 -11 11 -35 12 -42 2z"/>
</g>
</svg>
