<?xml version="1.0" standalone="no"?>
<!DOCTYPE svg PUBLIC "-//W3C//DTD SVG 20010904//EN"
 "http://www.w3.org/TR/2001/REC-SVG-20010904/DTD/svg10.dtd">
<svg version="1.0" xmlns="http://www.w3.org/2000/svg"
 width="500.000000pt" height="500.000000pt" viewBox="0 0 500.000000 500.000000"
 preserveAspectRatio="xMidYMid meet">

<g transform="translate(0.000000,500.000000) scale(0.100000,-0.100000)"
fill="#000000" stroke="none">
<path d="M1877 4149 c-52 -12 -114 -45 -139 -75 -12 -13 -28 -22 -35 -20 -7 3
-13 -1 -13 -9 0 -8 11 -17 24 -21 15 -3 23 -11 20 -19 -12 -30 80 -33 168 -5
81 25 103 25 140 -2 l31 -21 -5 26 c-4 23 -3 25 9 15 8 -6 12 -17 9 -25 -3 -7
-2 -13 3 -13 15 0 41 37 41 59 0 31 -36 98 -59 111 -23 12 -141 12 -194 -1z"/>
<path d="M2658 4133 c17 -2 47 -2 65 0 17 2 3 4 -33 4 -36 0 -50 -2 -32 -4z"/>
<path d="M2515 4100 c-3 -5 -2 -10 4 -10 5 0 13 5 16 10 3 6 2 10 -4 10 -5 0
-13 -4 -16 -10z"/>
<path d="M2903 4087 c12 -13 24 -22 26 -20 6 4 -30 43 -40 43 -5 0 2 -10 14
-23z"/>
<path d="M4511 4047 c-1 -37 -6 -76 -13 -86 -9 -15 -9 -28 2 -60 24 -74 -14
-260 -80 -391 -46 -90 -134 -160 -219 -173 -30 -5 -41 6 -41 41 0 15 2 15 11
2 18 -26 -10 438 -31 521 -15 55 -46 77 -135 95 -177 37 -311 -20 -356 -151
-17 -49 -20 -542 -4 -590 7 -20 7 -79 1 -173 l-8 -144 -39 38 c-34 33 -39 44
-40 84 0 25 -4 68 -9 95 -5 33 -3 105 7 210 25 270 11 330 -93 381 -48 24 -63
26 -132 22 -88 -5 -163 -37 -205 -87 -29 -35 -47 -132 -28 -155 16 -19 100 -9
185 21 67 24 70 25 83 7 67 -92 49 -383 -26 -423 -21 -12 -64 -15 -73 -5 -14
13 6 43 33 49 38 9 47 25 14 25 -15 0 -24 -4 -20 -10 3 -5 -1 -10 -10 -10 -9
0 -13 5 -10 10 4 6 -7 10 -25 10 -65 0 -120 106 -120 232 0 54 -3 69 -11 61
-15 -15 2 -181 28 -271 l18 -63 -33 -25 c-17 -14 -32 -31 -32 -38 0 -7 -12
-18 -26 -25 -21 -9 -25 -17 -21 -37 3 -18 -1 -29 -14 -37 -11 -7 -19 -16 -19
-20 0 -5 -24 -37 -54 -70 -155 -178 -193 -309 -120 -418 56 -83 181 -144 211
-104 23 32 15 51 -37 84 -60 39 -100 94 -100 137 0 43 50 113 123 173 34 28
64 51 67 51 9 0 40 -161 40 -208 0 -23 -12 -70 -26 -105 -16 -38 -27 -85 -29
-122 -1 -33 -12 -96 -25 -140 -21 -77 -21 -90 -15 -385 4 -168 9 -307 10 -310
2 -3 6 -156 10 -341 l8 -336 -47 -7 -46 -7 0 -61 0 -61 50 7 c41 6 50 4 50 -9
0 -9 9 -15 24 -15 33 0 57 -10 50 -21 -9 -15 150 -10 197 6 34 13 53 14 85 6
27 -7 52 -7 75 -1 19 6 51 10 71 10 l38 0 -4 478 c-3 262 -8 532 -12 600 l-7
122 41 0 c37 0 42 -3 48 -27 3 -16 17 -71 29 -123 23 -92 31 -159 75 -600 24
-248 24 -262 4 -351 -14 -63 -19 -72 -45 -81 -47 -16 -29 -33 40 -36 l62 -3
14 35 c8 20 15 44 15 55 0 11 5 23 11 26 7 5 8 -13 3 -57 -10 -91 4 -66 21 38
19 115 19 113 -10 120 -21 5 -24 10 -18 32 3 14 6 140 7 281 1 209 -2 275 -18
360 -16 94 -18 135 -11 408 6 234 10 303 20 303 20 0 25 -36 25 -208 0 -124 3
-167 14 -177 8 -8 16 -51 20 -113 4 -54 24 -277 45 -494 39 -391 39 -396 23
-474 -15 -68 -21 -80 -45 -92 -50 -24 -34 -42 38 -42 l64 0 20 63 20 62 2 -65
2 -65 12 70 c6 39 15 85 19 102 7 29 5 34 -19 45 l-27 12 8 115 c13 213 8 417
-14 537 -19 110 -19 113 -1 215 11 57 26 115 33 129 9 15 21 103 32 219 20
224 18 241 -46 446 -23 72 -44 157 -47 190 -5 60 18 249 38 303 8 20 40 45
121 92 190 111 263 193 319 360 23 69 32 121 39 213 5 67 13 147 18 177 9 56
0 81 -26 72 -14 -4 -15 -1 -3 30 17 46 21 78 11 78 -5 0 -10 -4 -10 -9 0 -5
-10 -31 -22 -58 l-21 -48 -13 60 -12 60 -1 -68z m-826 -707 c12 -39 12 -47 0
-59 -8 -8 -17 -12 -20 -9 -3 3 -7 50 -10 104 -4 85 -3 92 6 54 6 -25 17 -65
24 -90z m198 -10 c12 0 35 7 51 15 24 13 63 12 88 -2 4 -2 -7 -18 -23 -36 -16
-17 -39 -61 -51 -97 -19 -58 -22 -93 -26 -332 l-4 -268 -54 0 c-37 0 -54 4
-54 13 0 6 -8 41 -19 77 -11 36 -30 110 -43 165 -19 82 -29 107 -57 138 -42
46 -40 58 29 203 27 59 47 111 43 118 -3 6 -3 8 1 5 4 -4 18 4 31 17 l25 24
20 -20 c11 -11 30 -20 43 -20z m-256 -687 c-4 -49 -7 -105 -7 -125 0 -31 -5
-39 -37 -59 -21 -12 -40 -24 -42 -25 -2 -2 2 -17 9 -34 10 -24 19 -30 41 -30
27 0 29 -3 29 -39 0 -22 5 -43 10 -46 16 -10 12 -75 -5 -81 -12 -5 -15 -25
-16 -88 0 -54 -3 -74 -9 -61 -5 11 -9 37 -9 57 -1 21 -10 54 -21 75 -22 44
-51 172 -49 217 1 17 -8 66 -20 108 -20 72 -21 81 -7 134 8 31 16 57 18 58 3
2 89 21 112 25 5 0 6 -37 3 -86z"/>
<path d="M2472 4065 c-19 -24 -19 -25 1 -116 18 -79 24 -92 46 -101 36 -13 61
-38 61 -60 0 -11 7 -18 18 -17 10 0 12 3 5 6 -7 2 -13 9 -13 14 0 6 4 8 8 5 4
-2 8 7 9 22 2 24 1 24 -7 7 -8 -19 -9 -19 -9 3 -1 12 -12 50 -26 84 -26 63
-34 108 -15 78 7 -11 9 -8 7 14 -1 21 3 29 16 32 11 1 22 6 25 9 4 4 -23 5
-60 2 -38 -2 -68 0 -68 4 0 5 5 8 11 7 6 -2 13 5 14 15 4 23 0 22 -23 -8z"/>
<path d="M2529 4063 c-13 -16 -12 -17 4 -4 9 7 17 15 17 17 0 8 -8 3 -21 -13z"/>
<path d="M2568 4063 c7 -3 16 -2 19 1 4 3 -2 6 -13 5 -11 0 -14 -3 -6 -6z"/>
<path d="M2921 4024 c0 -11 3 -14 6 -6 3 7 2 16 -1 19 -3 4 -6 -2 -5 -13z"/>
<path d="M2733 4013 c9 -2 23 -2 30 0 6 3 -1 5 -18 5 -16 0 -22 -2 -12 -5z"/>
<path d="M2906 3997 c3 -10 9 -15 12 -12 3 3 0 11 -7 18 -10 9 -11 8 -5 -6z"/>
<path d="M1085 3930 c-22 -4 -52 -13 -67 -19 -21 -8 -28 -8 -28 2 -1 25 -30
-44 -45 -105 -20 -87 -19 -174 7 -375 20 -157 23 -171 39 -162 33 17 74 9 125
-25 101 -68 172 -83 230 -47 44 27 58 66 46 131 -6 30 -8 65 -5 79 3 14 7 110
9 212 3 163 1 190 -14 220 -36 68 -186 113 -297 89z m136 -189 c24 -6 67 -11
95 -11 l51 0 7 -37 c8 -49 6 -211 -3 -243 -11 -38 -59 -43 -150 -14 -42 13
-83 24 -93 24 -24 0 -27 8 -37 107 -7 72 -6 93 6 117 9 18 13 44 10 66 l-5 37
38 -18 c21 -10 57 -23 81 -28z m-171 -141 c4 -14 9 -42 13 -62 6 -37 5 -37
-21 -27 -39 15 -60 37 -67 70 -9 39 1 51 38 47 23 -2 32 -9 37 -28z"/>
<path d="M1300 3711 c0 -5 14 -11 32 -13 28 -5 29 -4 13 9 -21 15 -45 17 -45
4z"/>
<path d="M1144 3684 c-19 -15 -19 -15 1 -6 11 5 27 12 35 15 13 5 13 6 -1 6
-8 1 -24 -6 -35 -15z"/>
<path d="M1315 3660 c-7 -12 2 -30 16 -30 5 0 9 9 9 20 0 21 -15 27 -25 10z"/>
<path d="M1155 3640 c-7 -12 2 -30 16 -30 5 0 9 9 9 20 0 21 -15 27 -25 10z"/>
<path d="M1923 3903 c-29 -11 -10 -24 32 -22 46 3 58 12 29 23 -18 7 -43 7
-61 -1z"/>
<path d="M2680 3900 c0 -5 5 -10 10 -10 6 0 10 5 10 10 0 6 -4 10 -10 10 -5 0
-10 -4 -10 -10z"/>
<path d="M2878 3883 c7 -3 16 -2 19 1 4 3 -2 6 -13 5 -11 0 -14 -3 -6 -6z"/>
<path d="M1753 3868 c-23 -11 -31 -28 -14 -28 19 0 71 23 71 31 0 12 -29 10
-57 -3z"/>
<path d="M1935 3839 c-4 -6 -5 -13 -2 -16 8 -7 47 7 47 18 0 13 -37 11 -45 -2z"/>
<path d="M2674 3839 c-8 -14 11 -33 25 -25 11 7 4 36 -9 36 -5 0 -12 -5 -16
-11z"/>
<path d="M2850 3830 c0 -11 7 -20 15 -20 8 0 15 9 15 20 0 11 -7 20 -15 20 -8
0 -15 -9 -15 -20z"/>
<path d="M1762 3808 c5 -15 37 -18 41 -3 1 6 -9 12 -22 13 -16 3 -22 -1 -19
-10z"/>
<path d="M2150 3606 c0 -2 6 -9 14 -15 11 -9 16 -9 22 0 4 8 3 9 -4 5 -7 -4
-12 -2 -12 3 0 6 -4 11 -10 11 -5 0 -10 -2 -10 -4z"/>
<path d="M2090 3589 c0 -5 5 -7 10 -4 6 3 10 8 10 11 0 2 -4 4 -10 4 -5 0 -10
-5 -10 -11z"/>
<path d="M2401 3579 c-7 -14 -36 -39 -64 -56 -29 -16 -97 -56 -152 -88 -55
-31 -104 -60 -109 -62 -4 -3 -7 18 -5 46 3 42 1 50 -11 45 -8 -4 -36 -9 -61
-11 -52 -6 -79 12 -79 53 0 25 0 25 -24 7 -45 -33 -55 -138 -53 -545 l1 -358
114 0 113 0 -2 210 c-2 205 -3 209 -23 207 -28 -3 -45 48 -45 136 -1 65 1 71
34 110 19 22 35 47 35 54 0 8 5 11 10 8 6 -3 10 0 10 7 0 14 -3 12 210 135 80
45 152 83 162 83 9 0 20 5 23 11 5 7 -4 8 -28 4 -29 -6 -36 -4 -39 12 -4 15
-6 14 -17 -8z"/>
<path d="M3149 3494 c-11 -13 -9 -14 17 -8 40 9 54 24 22 24 -14 0 -31 -7 -39
-16z"/>
<path d="M3300 3501 c0 -5 16 -11 35 -13 36 -4 47 5 19 16 -23 9 -54 7 -54 -3z"/>
<path d="M1702 3373 c-106 -116 -188 -223 -213 -278 -24 -52 -24 -129 0 -182
25 -54 100 -136 118 -129 8 3 11 1 8 -4 -6 -10 59 -44 115 -60 l28 -8 -5 76
c-4 68 -8 79 -31 97 -69 54 -102 89 -102 110 0 16 21 42 64 82 l64 58 5 137
c4 120 8 141 27 168 37 52 15 33 -78 -67z"/>
<path d="M3160 3446 c0 -18 16 -29 30 -21 13 8 1 35 -16 35 -8 0 -14 -6 -14
-14z"/>
<path d="M3322 3443 c5 -25 28 -28 28 -4 0 12 -6 21 -16 21 -9 0 -14 -7 -12
-17z"/>
<path d="M2215 3255 c-42 -20 -52 -21 -61 -9 -6 7 -14 11 -17 7 -11 -10 14
-33 37 -33 39 0 65 12 81 36 8 13 14 24 13 24 -2 -1 -25 -11 -53 -25z"/>
<path d="M2106 3213 c-6 -14 -5 -15 5 -6 7 7 10 15 7 18 -3 3 -9 -2 -12 -12z"/>
<path d="M3360 3220 c-9 -6 -10 -10 -3 -10 6 0 15 5 18 10 8 12 4 12 -15 0z"/>
<path d="M1012 3009 c-20 -33 -28 -88 -20 -134 2 -14 -2 -20 -14 -19 -10 1
-15 -2 -12 -7 17 -28 62 16 50 48 -5 13 -4 14 9 3 20 -17 19 -23 -11 -59 -28
-33 -30 -81 -4 -89 13 -5 13 -3 0 12 -13 16 -11 21 20 46 19 16 37 26 40 23 3
-2 -8 -16 -25 -29 -29 -24 -30 -25 -10 -39 27 -21 39 -14 43 26 4 40 -14 166
-32 217 l-12 35 -22 -34z"/>
<path d="M1430 2514 c-30 -7 -89 -16 -131 -20 l-77 -6 -6 -46 c-9 -70 -7 -182
4 -182 6 0 9 -48 8 -127 l-2 -128 -3 119 c-2 66 -8 125 -14 132 -6 8 -20 9
-37 5 l-27 -7 -3 -174 c-1 -95 1 -177 6 -182 34 -34 87 0 80 51 -2 17 -1 32 3
33 6 3 29 223 29 278 0 11 6 20 14 20 11 0 15 -40 21 -202 9 -250 3 -427 -19
-578 -14 -91 -16 -151 -11 -285 3 -93 9 -191 12 -217 5 -46 7 -48 39 -48 39 0
32 -38 75 399 24 247 38 345 64 455 95 393 108 527 67 648 -13 37 -27 69 -30
71 -4 2 -32 -2 -62 -9z m95 -319 c0 -16 -8 -21 -44 -23 -51 -4 -71 9 -51 33 9
11 26 15 54 13 33 -2 41 -7 41 -23z m-85 -370 c0 -22 -4 -25 -39 -25 -42 0
-57 11 -47 35 3 10 20 15 46 15 36 0 40 -2 40 -25z"/>
<path d="M1050 2500 c-9 -16 -6 -19 18 -22 29 -3 28 0 47 -160 5 -37 10 -48
24 -48 16 0 19 13 25 105 4 58 4 110 1 115 -4 6 -17 10 -30 10 -13 0 -35 4
-49 10 -21 8 -27 6 -36 -10z"/>
<path d="M955 2367 c-49 -11 -92 -22 -94 -23 -2 -2 0 -19 3 -39 l7 -35 111 0
111 0 -7 46 c-3 26 -6 53 -6 60 0 18 -16 17 -125 -9z"/>
<path d="M1211 1883 c-10 -11 -31 -14 -82 -11 -80 4 -76 12 -54 -112 10 -55
15 -151 15 -274 0 -174 13 -423 26 -503 5 -31 8 -33 43 -33 l38 0 6 358 c4
196 12 408 18 471 6 62 9 114 7 116 -2 2 -9 -4 -17 -12z"/>
<path d="M1097 934 c-10 -11 -8 -51 8 -124 14 -64 14 -64 9 -12 -2 28 -1 52 3
52 5 0 15 -24 23 -52 l15 -53 58 -1 57 -1 1 56 0 56 19 -55 c11 -30 20 -56 20
-58 0 -2 23 -2 52 0 67 4 79 28 14 28 l-45 0 -27 85 c-20 66 -30 85 -43 83
-18 -4 -20 -31 -7 -116 l8 -53 -43 3 -43 3 -25 79 c-25 75 -38 95 -54 80z"/>
<path d="M1609 866 c-52 -13 -75 -28 -82 -56 -5 -19 0 -20 118 -20 67 0 136 3
151 6 27 5 29 8 26 45 l-4 39 -52 0 c-35 0 -46 -3 -36 -10 28 -17 -1 -25 -31
-7 -17 9 -34 16 -37 16 -4 -1 -28 -6 -53 -13z"/>
<path d="M1973 866 c-57 -12 -67 -19 -78 -54 l-7 -23 151 2 151 2 0 43 0 44
-56 -1 c-33 -1 -51 -5 -43 -10 8 -4 10 -11 7 -15 -4 -4 -19 1 -32 10 -14 9
-29 15 -33 15 -4 -1 -31 -6 -60 -13z"/>
<path d="M2530 815 c-32 -59 -23 -67 71 -63 69 3 74 5 77 26 2 13 -2 37 -8 53
-11 27 -17 29 -64 29 -51 0 -52 -1 -76 -45z"/>
<path d="M1598 753 c46 -2 118 -2 160 0 42 1 5 3 -83 3 -88 0 -123 -2 -77 -3z"/>
<path d="M1963 753 c42 -2 112 -2 155 0 42 1 7 3 -78 3 -85 0 -120 -2 -77 -3z"/>
</g>
</svg>
