<?xml version="1.0" encoding="UTF-8"?>
<!DOCTYPE svg PUBLIC "-//W3C//DTD SVG 1.1//EN" "http://www.w3.org/Graphics/SVG/1.1/DTD/svg11.dtd">
<svg xmlns="http://www.w3.org/2000/svg" version="1.1" width="1440px" height="795px" style="shape-rendering:geometricPrecision; text-rendering:geometricPrecision; image-rendering:optimizeQuality; fill-rule:evenodd; clip-rule:evenodd" xmlns:xlink="http://www.w3.org/1999/xlink">
<g><path style="opacity:1" fill="#fefefe" d="M -0.5,-0.5 C 395.833,-0.5 792.167,-0.5 1188.5,-0.5C 1167.05,33.586 1163.55,69.586 1178,107.5C 1186.77,129.707 1198.1,150.374 1212,169.5C 1247.36,211.872 1279.02,256.872 1307,304.5C 1325.18,337.367 1338.85,372.034 1348,408.5C 1356.65,449.168 1356.65,489.835 1348,530.5C 1343.8,547.086 1338.8,563.419 1333,579.5C 1318.67,631.011 1316.67,683.011 1327,735.5C 1331.81,756.429 1339.64,776.095 1350.5,794.5C 900.167,794.5 449.833,794.5 -0.5,794.5C -0.5,529.5 -0.5,264.5 -0.5,-0.5 Z"/></g>
<g><path style="opacity:1" fill="#0e6efd" d="M 1188.5,-0.5 C 1272.17,-0.5 1355.83,-0.5 1439.5,-0.5C 1439.5,264.5 1439.5,529.5 1439.5,794.5C 1409.83,794.5 1380.17,794.5 1350.5,794.5C 1339.64,776.095 1331.81,756.429 1327,735.5C 1316.67,683.011 1318.67,631.011 1333,579.5C 1338.8,563.419 1343.8,547.086 1348,530.5C 1356.65,489.835 1356.65,449.168 1348,408.5C 1338.85,372.034 1325.18,337.367 1307,304.5C 1279.02,256.872 1247.36,211.872 1212,169.5C 1198.1,150.374 1186.77,129.707 1178,107.5C 1163.55,69.586 1167.05,33.586 1188.5,-0.5 Z"/></g>
<g><path style="opacity:1" fill="#415b83" d="M 160.5,12.5 C 161.675,12.281 162.675,12.6143 163.5,13.5C 161.948,14.7979 160.948,14.4646 160.5,12.5 Z"/></g>
<g><path style="opacity:1" fill="#042b60" d="M 548.5,18.5 C 550.76,19.2376 550.927,20.2376 549,21.5C 547.272,20.6477 547.105,19.6477 548.5,18.5 Z"/></g>
<g><path style="opacity:1" fill="#364e7a" d="M 579.5,19.5 C 580.5,19.5 581.5,19.5 582.5,19.5C 582.5,20.5 582.5,21.5 582.5,22.5C 579.433,22.8795 578.433,21.8795 579.5,19.5 Z"/></g>
<g><path style="opacity:1" fill="#314b78" d="M 981.5,21.5 C 983.465,21.9483 983.798,22.9483 982.5,24.5C 981.614,23.675 981.281,22.675 981.5,21.5 Z"/></g>
<g><path style="opacity:1" fill="#415b83" d="M 98.5,26.5 C 99.675,26.281 100.675,26.6143 101.5,27.5C 99.9483,28.7979 98.9483,28.4646 98.5,26.5 Z"/></g>
<g><path style="opacity:1" fill="#234674" d="M 244.5,30.5 C 246.337,30.6395 246.67,31.3061 245.5,32.5C 244.702,32.0431 244.369,31.3764 244.5,30.5 Z"/></g>
<g><path style="opacity:1" fill="#042b60" d="M 1094.5,30.5 C 1096.76,31.2376 1096.93,32.2376 1095,33.5C 1093.27,32.6477 1093.1,31.6477 1094.5,30.5 Z"/></g>
<g><path style="opacity:1" fill="#1f3b6c" d="M 159.5,43.5 C 162.275,43.8338 162.941,45.1671 161.5,47.5C 159.889,46.6798 159.222,45.3464 159.5,43.5 Z"/></g>
<g><path style="opacity:1" fill="#234674" d="M 421.5,50.5 C 423.337,50.6395 423.67,51.3061 422.5,52.5C 421.702,52.0431 421.369,51.3764 421.5,50.5 Z"/></g>
<g><path style="opacity:1" fill="#fbfcff" d="M 1317.5,54.5 C 1328.52,55.3396 1338.68,58.6729 1348,64.5C 1346.48,77.8136 1345.15,91.1469 1344,104.5C 1349.17,97.5 1354.33,90.5 1359.5,83.5C 1353.21,80.7782 1351.87,76.4448 1355.5,70.5C 1365.47,70.9834 1374.97,73.65 1384,78.5C 1382.19,99.1975 1378.19,119.531 1372,139.5C 1370.04,147.828 1365.2,150.328 1357.5,147C 1354.4,146.058 1352.07,144.224 1350.5,141.5C 1351.47,138.226 1352.97,135.226 1355,132.5C 1359.32,117.557 1363.98,102.89 1369,88.5C 1362.26,101.577 1353.59,113.243 1343,123.5C 1342.77,127.555 1342.27,131.555 1341.5,135.5C 1333.66,137.828 1326.82,136.161 1321,130.5C 1320.22,129.271 1319.72,127.938 1319.5,126.5C 1321.32,123.538 1323.15,120.538 1325,117.5C 1326.59,103.116 1328.42,88.7822 1330.5,74.5C 1330.17,74.1667 1329.83,73.8333 1329.5,73.5C 1325.2,89.2061 1319.04,104.206 1311,118.5C 1305,123.833 1299,123.833 1293,118.5C 1289.45,113.266 1289.95,108.433 1294.5,104C 1296.46,103.376 1298.13,103.876 1299.5,105.5C 1307.45,92.9214 1314.29,79.9214 1320,66.5C 1318.58,65.5399 1317.08,64.7065 1315.5,64C 1314.94,63.2753 1314.61,62.4419 1314.5,61.5C 1315.25,59.0037 1316.25,56.6704 1317.5,54.5 Z"/></g>
<g><path style="opacity:1" fill="#1d3c6c" d="M 414.5,62.5 C 418.161,62.3501 419.161,63.8501 417.5,67C 413.707,67.4866 412.707,65.9866 414.5,62.5 Z"/></g>
<g><path style="opacity:1" fill="#234674" d="M 827.5,85.5 C 829.337,85.6395 829.67,86.3061 828.5,87.5C 827.702,87.0431 827.369,86.3764 827.5,85.5 Z"/></g>
<g><path style="opacity:1" fill="#234674" d="M 622.5,96.5 C 624.337,96.6395 624.67,97.3061 623.5,98.5C 622.702,98.0431 622.369,97.3764 622.5,96.5 Z"/></g>
<g><path style="opacity:1" fill="#314b78" d="M 714.5,97.5 C 716.465,97.9483 716.798,98.9483 715.5,100.5C 714.614,99.675 714.281,98.675 714.5,97.5 Z"/></g>
<g><path style="opacity:1" fill="#042b60" d="M 990.5,102.5 C 992.76,103.238 992.927,104.238 991,105.5C 989.272,104.648 989.105,103.648 990.5,102.5 Z"/></g>
<g><path style="opacity:1" fill="#314b78" d="M 910.5,102.5 C 912.465,102.948 912.798,103.948 911.5,105.5C 910.614,104.675 910.281,103.675 910.5,102.5 Z"/></g>
<g><path style="opacity:1" fill="#042b60" d="M 225.5,109.5 C 227.76,110.238 227.927,111.238 226,112.5C 224.272,111.648 224.105,110.648 225.5,109.5 Z"/></g>
<g><path style="opacity:1" fill="#364e7a" d="M 826.5,116.5 C 827.5,116.5 828.5,116.5 829.5,116.5C 829.5,117.5 829.5,118.5 829.5,119.5C 826.433,119.879 825.433,118.879 826.5,116.5 Z"/></g>
<g><path style="opacity:1" fill="#042b60" d="M 11.5,123.5 C 13.7602,124.238 13.9269,125.238 12,126.5C 10.2716,125.648 10.105,124.648 11.5,123.5 Z"/></g>
<g><path style="opacity:1" fill="#415b83" d="M 196.5,127.5 C 197.675,127.281 198.675,127.614 199.5,128.5C 197.948,129.798 196.948,129.465 196.5,127.5 Z"/></g>
<g><path style="opacity:1" fill="#234674" d="M 384.5,135.5 C 386.337,135.639 386.67,136.306 385.5,137.5C 384.702,137.043 384.369,136.376 384.5,135.5 Z"/></g>
<g><path style="opacity:1" fill="#747474" d="M 847.5,145.5 C 850.39,145.278 853.057,145.945 855.5,147.5C 857.217,151.991 857.883,156.657 857.5,161.5C 855.488,162.014 853.488,162.18 851.5,162C 850.692,159.912 849.692,157.912 848.5,156C 846.833,155.333 845.167,155.333 843.5,156C 843.257,162.69 844.924,169.023 848.5,175C 853.225,175.222 857.058,173.389 860,169.5C 864.508,173.055 864.341,176.555 859.5,180C 851.093,185.557 843.926,184.391 838,176.5C 834.227,170.299 832.893,163.632 834,156.5C 836.616,150.372 841.116,146.706 847.5,145.5 Z"/></g>
<g><path style="opacity:1" fill="#042b60" d="M 17.5,147.5 C 19.7602,148.238 19.9269,149.238 18,150.5C 16.2716,149.648 16.105,148.648 17.5,147.5 Z"/></g>
<g><path style="opacity:1" fill="#042b60" d="M 102.5,156.5 C 104.76,157.238 104.927,158.238 103,159.5C 101.272,158.648 101.105,157.648 102.5,156.5 Z"/></g>
<g><path style="opacity:1" fill="#042b60" d="M 466.5,159.5 C 468.76,160.238 468.927,161.238 467,162.5C 465.272,161.648 465.105,160.648 466.5,159.5 Z"/></g>
<g><path style="opacity:1" fill="#042b60" d="M 750.5,159.5 C 752.76,160.238 752.927,161.238 751,162.5C 749.272,161.648 749.105,160.648 750.5,159.5 Z"/></g>
<g><path style="opacity:1" fill="#415b83" d="M 200.5,161.5 C 201.675,161.281 202.675,161.614 203.5,162.5C 201.948,163.798 200.948,163.465 200.5,161.5 Z"/></g>
<g><path style="opacity:1" fill="#042b60" d="M 1132.5,175.5 C 1134.76,176.238 1134.93,177.238 1133,178.5C 1131.27,177.648 1131.1,176.648 1132.5,175.5 Z"/></g>
<g><path style="opacity:1" fill="#364e7a" d="M 545.5,176.5 C 546.5,176.5 547.5,176.5 548.5,176.5C 548.5,177.5 548.5,178.5 548.5,179.5C 545.433,179.879 544.433,178.879 545.5,176.5 Z"/></g>
<g><path style="opacity:1" fill="#042b60" d="M 576.5,178.5 C 578.76,179.238 578.927,180.238 577,181.5C 575.272,180.648 575.105,179.648 576.5,178.5 Z"/></g>
<g><path style="opacity:1" fill="#727272" d="M 679.5,186.5 C 681.199,186.34 682.866,186.506 684.5,187C 692.874,198.242 700.374,210.075 707,222.5C 708.618,228.248 706.452,231.414 700.5,232C 698.833,232.667 697.167,232.667 695.5,232C 694.44,229.263 693.606,226.43 693,223.5C 692.632,222.09 691.799,221.09 690.5,220.5C 687.833,221.5 685.167,222.5 682.5,223.5C 684.959,236.206 679.959,241.373 667.5,239C 666.565,236.619 666.232,234.119 666.5,231.5C 667.833,231.5 669.167,231.5 670.5,231.5C 670.497,221.456 669.83,211.456 668.5,201.5C 665.916,202.393 663.249,202.726 660.5,202.5C 659.477,199.607 659.477,196.774 660.5,194C 666.893,191.375 673.227,188.875 679.5,186.5 Z"/></g>
<g><path style="opacity:1" fill="#314b78" d="M 368.5,187.5 C 370.465,187.948 370.798,188.948 369.5,190.5C 368.614,189.675 368.281,188.675 368.5,187.5 Z"/></g>
<g><path style="opacity:1" fill="#234674" d="M 553.5,198.5 C 555.337,198.639 555.67,199.306 554.5,200.5C 553.702,200.043 553.369,199.376 553.5,198.5 Z"/></g>
<g><path style="opacity:1" fill="#f8f8f8" d="M 679.5,198.5 C 682.392,202.602 685.059,206.935 687.5,211.5C 685.392,212.944 683.059,213.61 680.5,213.5C 680.084,208.507 679.751,203.507 679.5,198.5 Z"/></g>
<g><path style="opacity:1" fill="#042b60" d="M 626.5,204.5 C 628.76,205.238 628.927,206.238 627,207.5C 625.272,206.648 625.105,205.648 626.5,204.5 Z"/></g>
<g><path style="opacity:1" fill="#234674" d="M 1064.5,205.5 C 1066.34,205.639 1066.67,206.306 1065.5,207.5C 1064.7,207.043 1064.37,206.376 1064.5,205.5 Z"/></g>
<g><path style="opacity:1" fill="#415b83" d="M 34.5,208.5 C 35.675,208.281 36.675,208.614 37.5,209.5C 35.9483,210.798 34.9483,210.465 34.5,208.5 Z"/></g>
<g><path style="opacity:1" fill="#717171" d="M 751.5,210.5 C 772.853,212.337 792.853,218.504 811.5,229C 819.904,238.111 820.737,247.944 814,258.5C 808.773,264.862 802.273,269.362 794.5,272C 807.153,283.231 807.82,295.231 796.5,308C 792.817,311.34 788.484,313.34 783.5,314C 777.833,314.667 772.167,314.667 766.5,314C 754.662,310.776 743.328,306.276 732.5,300.5C 732.167,299.833 731.833,299.167 731.5,298.5C 738.117,275.315 746.117,252.649 755.5,230.5C 755.392,229.558 755.059,228.725 754.5,228C 751.96,226.569 749.627,224.902 747.5,223C 748.147,218.579 749.48,214.413 751.5,210.5 Z"/></g>
<g><path style="opacity:1" fill="#042b60" d="M 109.5,221.5 C 111.76,222.238 111.927,223.238 110,224.5C 108.272,223.648 108.105,222.648 109.5,221.5 Z"/></g>
<g><path style="opacity:1" fill="#042b60" d="M 855.5,235.5 C 857.76,236.238 857.927,237.238 856,238.5C 854.272,237.648 854.105,236.648 855.5,235.5 Z"/></g>
<g><path style="opacity:1" fill="#133768" d="M 644.5,235.5 C 647.861,236.203 648.194,237.537 645.5,239.5C 643.358,238.563 643.024,237.23 644.5,235.5 Z"/></g>
<g><path style="opacity:1" fill="#fafafa" d="M 777.5,238.5 C 782.986,239.604 787.986,241.771 792.5,245C 789.712,250.745 786.546,256.245 783,261.5C 782.223,263.215 780.89,264.215 779,264.5C 775.12,263.836 771.62,262.503 768.5,260.5C 772.066,253.373 775.066,246.04 777.5,238.5 Z"/></g>
<g><path style="opacity:1" fill="#234674" d="M 921.5,238.5 C 923.337,238.639 923.67,239.306 922.5,240.5C 921.702,240.043 921.369,239.376 921.5,238.5 Z"/></g>
<g><path style="opacity:1" fill="#042b60" d="M 993.5,239.5 C 995.76,240.238 995.927,241.238 994,242.5C 992.272,241.648 992.105,240.648 993.5,239.5 Z"/></g>
<g><path style="opacity:1" fill="#314b78" d="M 287.5,246.5 C 289.465,246.948 289.798,247.948 288.5,249.5C 287.614,248.675 287.281,247.675 287.5,246.5 Z"/></g>
<g><path style="opacity:1" fill="#364e7a" d="M 582.5,251.5 C 583.5,251.5 584.5,251.5 585.5,251.5C 585.5,252.5 585.5,253.5 585.5,254.5C 582.433,254.879 581.433,253.879 582.5,251.5 Z"/></g>
<g><path style="opacity:1" fill="#314b78" d="M 479.5,254.5 C 481.465,254.948 481.798,255.948 480.5,257.5C 479.614,256.675 479.281,255.675 479.5,254.5 Z"/></g>
<g><path style="opacity:1" fill="#727272" d="M 910.5,265.5 C 917.008,265.009 920.341,268.009 920.5,274.5C 918.437,284.02 915.771,293.353 912.5,302.5C 912.833,303.833 913.167,305.167 913.5,306.5C 916.628,302.382 919.294,302.715 921.5,307.5C 918.736,315.464 913.57,318.131 906,315.5C 904.36,311.608 903.027,307.608 902,303.5C 895.94,298.228 890.44,292.394 885.5,286C 875.528,283.04 875.194,279.04 884.5,274C 887.167,273.333 889.833,273.333 892.5,274C 897.78,279.949 902.28,286.449 906,293.5C 907.802,288.394 908.635,283.06 908.5,277.5C 903.672,278.16 901.839,276.16 903,271.5C 905.114,268.879 907.614,266.879 910.5,265.5 Z"/></g>
<g><path style="opacity:1" fill="#234674" d="M 272.5,267.5 C 274.337,267.639 274.67,268.306 273.5,269.5C 272.702,269.043 272.369,268.376 272.5,267.5 Z"/></g>
<g><path style="opacity:1" fill="#fbfbfb" d="M 760.5,277.5 C 768.007,278.501 774.841,281.168 781,285.5C 781.125,290.747 778.959,294.913 774.5,298C 767.293,298.044 760.626,296.044 754.5,292C 756.981,287.396 758.981,282.562 760.5,277.5 Z"/></g>
<g><path style="opacity:1" fill="#042b60" d="M 135.5,282.5 C 137.76,283.238 137.927,284.238 136,285.5C 134.272,284.648 134.105,283.648 135.5,282.5 Z"/></g>
<g><path style="opacity:1" fill="#234674" d="M 1101.5,282.5 C 1103.34,282.639 1103.67,283.306 1102.5,284.5C 1101.7,284.043 1101.37,283.376 1101.5,282.5 Z"/></g>
<g><path style="opacity:1" fill="#364e7a" d="M 160.5,281.5 C 161.5,281.5 162.5,281.5 163.5,281.5C 163.5,282.5 163.5,283.5 163.5,284.5C 160.433,284.879 159.433,283.879 160.5,281.5 Z"/></g>
<g><path style="opacity:1" fill="#234674" d="M 1004.5,287.5 C 1006.34,287.639 1006.67,288.306 1005.5,289.5C 1004.7,289.043 1004.37,288.376 1004.5,287.5 Z"/></g>
<g><path style="opacity:1" fill="#314b78" d="M 17.5,291.5 C 19.4646,291.948 19.7979,292.948 18.5,294.5C 17.6143,293.675 17.281,292.675 17.5,291.5 Z"/></g>
<g><path style="opacity:1" fill="#042b60" d="M 49.5,292.5 C 51.7602,293.238 51.9269,294.238 50,295.5C 48.2716,294.648 48.105,293.648 49.5,292.5 Z"/></g>
<g><path style="opacity:1" fill="#042b60" d="M 451.5,294.5 C 453.76,295.238 453.927,296.238 452,297.5C 450.272,296.648 450.105,295.648 451.5,294.5 Z"/></g>
<g><path style="opacity:1" fill="#042b60" d="M 1155.5,294.5 C 1157.76,295.238 1157.93,296.238 1156,297.5C 1154.27,296.648 1154.1,295.648 1155.5,294.5 Z"/></g>
<g><path style="opacity:1" fill="#042b60" d="M 561.5,302.5 C 563.76,303.238 563.927,304.238 562,305.5C 560.272,304.648 560.105,303.648 561.5,302.5 Z"/></g>
<g><path style="opacity:1" fill="#042b60" d="M 1161.5,318.5 C 1163.76,319.238 1163.93,320.238 1162,321.5C 1160.27,320.648 1160.1,319.648 1161.5,318.5 Z"/></g>
<g><path style="opacity:1" fill="#314b78" d="M 1246.5,327.5 C 1248.46,327.948 1248.8,328.948 1247.5,330.5C 1246.61,329.675 1246.28,328.675 1246.5,327.5 Z"/></g>
<g><path style="opacity:1" fill="#234674" d="M 1008.5,337.5 C 1010.34,337.639 1010.67,338.306 1009.5,339.5C 1008.7,339.043 1008.37,338.376 1008.5,337.5 Z"/></g>
<g><path style="opacity:1" fill="#234674" d="M 969.5,339.5 C 971.337,339.639 971.67,340.306 970.5,341.5C 969.702,341.043 969.369,340.376 969.5,339.5 Z"/></g>
<g><path style="opacity:1" fill="#737373" d="M 673.5,344.5 C 683.204,344.302 692.87,344.802 702.5,346C 707.987,347.151 710.987,350.485 711.5,356C 709.953,367.308 706.786,378.141 702,388.5C 695.612,395.051 689.112,395.051 682.5,388.5C 673.191,395.358 669.024,393.024 670,381.5C 671.699,380.594 673.533,380.261 675.5,380.5C 675.5,371.5 675.5,362.5 675.5,353.5C 674.167,353.5 672.833,353.5 671.5,353.5C 671.091,350.145 671.758,347.145 673.5,344.5 Z"/></g>
<g><path style="opacity:1" fill="#133768" d="M 610.5,348.5 C 613.861,349.203 614.194,350.537 611.5,352.5C 609.358,351.563 609.024,350.23 610.5,348.5 Z"/></g>
<g><path style="opacity:1" fill="#364e7a" d="M 664.5,349.5 C 665.5,349.5 666.5,349.5 667.5,349.5C 667.5,350.5 667.5,351.5 667.5,352.5C 664.433,352.879 663.433,351.879 664.5,349.5 Z"/></g>
<g><path style="opacity:1" fill="#fafafa" d="M 687.5,356.5 C 690.518,356.335 693.518,356.502 696.5,357C 697.1,365.262 696.1,373.429 693.5,381.5C 690.914,382.48 688.247,382.813 685.5,382.5C 686.707,373.887 687.374,365.22 687.5,356.5 Z"/></g>
<g><path style="opacity:1" fill="#234674" d="M 120.5,359.5 C 122.337,359.639 122.67,360.306 121.5,361.5C 120.702,361.043 120.369,360.376 120.5,359.5 Z"/></g>
<g><path style="opacity:1" fill="#415b83" d="M 91.5,369.5 C 92.675,369.281 93.675,369.614 94.5,370.5C 92.9483,371.798 91.9483,371.465 91.5,369.5 Z"/></g>
<g><path style="opacity:1" fill="#042b60" d="M 184.5,370.5 C 186.76,371.238 186.927,372.238 185,373.5C 183.272,372.648 183.105,371.648 184.5,370.5 Z"/></g>
<g><path style="opacity:1" fill="#234674" d="M 775.5,371.5 C 777.337,371.639 777.67,372.306 776.5,373.5C 775.702,373.043 775.369,372.376 775.5,371.5 Z"/></g>
<g><path style="opacity:1" fill="#042b60" d="M 460.5,375.5 C 462.76,376.238 462.927,377.238 461,378.5C 459.272,377.648 459.105,376.648 460.5,375.5 Z"/></g>
<g><path style="opacity:1" fill="#234674" d="M 202.5,384.5 C 204.337,384.639 204.67,385.306 203.5,386.5C 202.702,386.043 202.369,385.376 202.5,384.5 Z"/></g>
<g><path style="opacity:1" fill="#042b60" d="M 282.5,400.5 C 284.76,401.238 284.927,402.238 283,403.5C 281.272,402.648 281.105,401.648 282.5,400.5 Z"/></g>
<g><path style="opacity:1" fill="#042b60" d="M 312.5,402.5 C 314.76,403.238 314.927,404.238 313,405.5C 311.272,404.648 311.105,403.648 312.5,402.5 Z"/></g>
<g><path style="opacity:1" fill="#1a3b6b" d="M 1091.5,407.5 C 1094.96,408.536 1095.29,410.203 1092.5,412.5C 1090.3,411.218 1089.96,409.551 1091.5,407.5 Z"/></g>
<g><path style="opacity:1" fill="#042b60" d="M 105.5,411.5 C 107.76,412.238 107.927,413.238 106,414.5C 104.272,413.648 104.105,412.648 105.5,411.5 Z"/></g>
<g><path style="opacity:1" fill="#133768" d="M 549.5,420.5 C 552.861,421.203 553.194,422.537 550.5,424.5C 548.358,423.563 548.024,422.23 549.5,420.5 Z"/></g>
<g><path style="opacity:1" fill="#042b60" d="M 1185.5,422.5 C 1187.76,423.238 1187.93,424.238 1186,425.5C 1184.27,424.648 1184.1,423.648 1185.5,422.5 Z"/></g>
<g><path style="opacity:1" fill="#415b83" d="M 289.5,422.5 C 290.675,422.281 291.675,422.614 292.5,423.5C 290.948,424.798 289.948,424.465 289.5,422.5 Z"/></g>
<g><path style="opacity:1" fill="#415b83" d="M 1276.5,424.5 C 1277.68,424.281 1278.68,424.614 1279.5,425.5C 1277.95,426.798 1276.95,426.465 1276.5,424.5 Z"/></g>
<g><path style="opacity:1" fill="#364e7a" d="M 362.5,428.5 C 363.5,428.5 364.5,428.5 365.5,428.5C 365.5,429.5 365.5,430.5 365.5,431.5C 362.433,431.879 361.433,430.879 362.5,428.5 Z"/></g>
<g><path style="opacity:1" fill="#364e7a" d="M 15.5,449.5 C 16.5,449.5 17.5,449.5 18.5,449.5C 18.5,450.5 18.5,451.5 18.5,452.5C 15.4331,452.879 14.4331,451.879 15.5,449.5 Z"/></g>
<g><path style="opacity:1" fill="#042b60" d="M 901.5,454.5 C 903.76,455.238 903.927,456.238 902,457.5C 900.272,456.648 900.105,455.648 901.5,454.5 Z"/></g>
<g><path style="opacity:1" fill="#133768" d="M 380.5,459.5 C 383.861,460.203 384.194,461.537 381.5,463.5C 379.358,462.563 379.024,461.23 380.5,459.5 Z"/></g>
<g><path style="opacity:1" fill="#042b60" d="M 687.5,468.5 C 689.76,469.238 689.927,470.238 688,471.5C 686.272,470.648 686.105,469.648 687.5,468.5 Z"/></g>
<g><path style="opacity:1" fill="#234674" d="M 23.5,471.5 C 25.337,471.639 25.6704,472.306 24.5,473.5C 23.7025,473.043 23.3691,472.376 23.5,471.5 Z"/></g>
<g><path style="opacity:1" fill="#415b83" d="M 872.5,472.5 C 873.675,472.281 874.675,472.614 875.5,473.5C 873.948,474.798 872.948,474.465 872.5,472.5 Z"/></g>
<g><path style="opacity:1" fill="#364e7a" d="M 318.5,475.5 C 319.5,475.5 320.5,475.5 321.5,475.5C 321.5,476.5 321.5,477.5 321.5,478.5C 318.433,478.879 317.433,477.879 318.5,475.5 Z"/></g>
<g><path style="opacity:1" fill="#364e7a" d="M 95.5,477.5 C 96.5,477.5 97.5,477.5 98.5,477.5C 98.5,478.5 98.5,479.5 98.5,480.5C 95.4331,480.879 94.4331,479.879 95.5,477.5 Z"/></g>
<g><path style="opacity:1" fill="#234674" d="M 215.5,479.5 C 217.337,479.639 217.67,480.306 216.5,481.5C 215.702,481.043 215.369,480.376 215.5,479.5 Z"/></g>
<g><path style="opacity:1" fill="#314b78" d="M 622.5,479.5 C 624.465,479.948 624.798,480.948 623.5,482.5C 622.614,481.675 622.281,480.675 622.5,479.5 Z"/></g>
<g><path style="opacity:1" fill="#234674" d="M 1060.5,480.5 C 1062.34,480.639 1062.67,481.306 1061.5,482.5C 1060.7,482.043 1060.37,481.376 1060.5,480.5 Z"/></g>
<g><path style="opacity:1" fill="#234674" d="M 714.5,481.5 C 716.337,481.639 716.67,482.306 715.5,483.5C 714.702,483.043 714.369,482.376 714.5,481.5 Z"/></g>
<g><path style="opacity:1" fill="#042b60" d="M 990.5,485.5 C 992.76,486.238 992.927,487.238 991,488.5C 989.272,487.648 989.105,486.648 990.5,485.5 Z"/></g>
<g><path style="opacity:1" fill="#234674" d="M 910.5,486.5 C 912.337,486.639 912.67,487.306 911.5,488.5C 910.702,488.043 910.369,487.376 910.5,486.5 Z"/></g>
<g><path style="opacity:1" fill="#234674" d="M 570.5,489.5 C 572.337,489.639 572.67,490.306 571.5,491.5C 570.702,491.043 570.369,490.376 570.5,489.5 Z"/></g>
<g><path style="opacity:1" fill="#415b83" d="M 1344.5,488.5 C 1345.68,488.281 1346.68,488.614 1347.5,489.5C 1345.95,490.798 1344.95,490.465 1344.5,488.5 Z"/></g>
<g><path style="opacity:1" fill="#042b60" d="M 225.5,492.5 C 227.76,493.238 227.927,494.238 226,495.5C 224.272,494.648 224.105,493.648 225.5,492.5 Z"/></g>
<g><path style="opacity:1" fill="#042b60" d="M 693.5,492.5 C 695.76,493.238 695.927,494.238 694,495.5C 692.272,494.648 692.105,493.648 693.5,492.5 Z"/></g>
<g><path style="opacity:1" fill="#042b60" d="M 779.5,501.5 C 781.76,502.238 781.927,503.238 780,504.5C 778.272,503.648 778.105,502.648 779.5,501.5 Z"/></g>
<g><path style="opacity:1" fill="#364e7a" d="M 826.5,499.5 C 827.5,499.5 828.5,499.5 829.5,499.5C 829.5,500.5 829.5,501.5 829.5,502.5C 826.433,502.879 825.433,501.879 826.5,499.5 Z"/></g>
<g><path style="opacity:1" fill="#314b78" d="M 1142.5,504.5 C 1144.46,504.948 1144.8,505.948 1143.5,507.5C 1142.61,506.675 1142.28,505.675 1142.5,504.5 Z"/></g>
<g><path style="opacity:1" fill="#042b60" d="M 11.5,506.5 C 13.7602,507.238 13.9269,508.238 12,509.5C 10.2716,508.648 10.105,507.648 11.5,506.5 Z"/></g>
<g><path style="opacity:1" fill="#234674" d="M 877.5,506.5 C 879.337,506.639 879.67,507.306 878.5,508.5C 877.702,508.043 877.369,507.376 877.5,506.5 Z"/></g>
<g><path style="opacity:1" fill="#042b60" d="M 324.5,508.5 C 326.76,509.238 326.927,510.238 325,511.5C 323.272,510.648 323.105,509.648 324.5,508.5 Z"/></g>
<g><path style="opacity:1" fill="#042b60" d="M 197.5,510.5 C 199.76,511.238 199.927,512.238 198,513.5C 196.272,512.648 196.105,511.648 197.5,510.5 Z"/></g>
<g><path style="opacity:1" fill="#042b60" d="M 463.5,512.5 C 465.76,513.238 465.927,514.238 464,515.5C 462.272,514.648 462.105,513.648 463.5,512.5 Z"/></g>
<g><path style="opacity:1" fill="#314b78" d="M 384.5,518.5 C 386.465,518.948 386.798,519.948 385.5,521.5C 384.614,520.675 384.281,519.675 384.5,518.5 Z"/></g>
<g><path style="opacity:1" fill="#415b83" d="M 16.5,531.5 C 17.675,531.281 18.675,531.614 19.5,532.5C 17.9483,533.798 16.9483,533.465 16.5,531.5 Z"/></g>
<g><path style="opacity:1" fill="#234674" d="M 1041.5,532.5 C 1043.34,532.639 1043.67,533.306 1042.5,534.5C 1041.7,534.043 1041.37,533.376 1041.5,532.5 Z"/></g>
<g><path style="opacity:1" fill="#415b83" d="M 101.5,540.5 C 102.675,540.281 103.675,540.614 104.5,541.5C 102.948,542.798 101.948,542.465 101.5,540.5 Z"/></g>
<g><path style="opacity:1" fill="#042b60" d="M 750.5,542.5 C 752.76,543.238 752.927,544.238 751,545.5C 749.272,544.648 749.105,543.648 750.5,542.5 Z"/></g>
<g><path style="opacity:1" fill="#042b60" d="M 201.5,544.5 C 203.76,545.238 203.927,546.238 202,547.5C 200.272,546.648 200.105,545.648 201.5,544.5 Z"/></g>
<g><path style="opacity:1" fill="#415b83" d="M 465.5,543.5 C 466.675,543.281 467.675,543.614 468.5,544.5C 466.948,545.798 465.948,545.465 465.5,543.5 Z"/></g>
<g><path style="opacity:1" fill="#1f3b6c" d="M 1131.5,558.5 C 1134.27,558.834 1134.94,560.167 1133.5,562.5C 1131.89,561.68 1131.22,560.346 1131.5,558.5 Z"/></g>
<g><path style="opacity:1" fill="#364e7a" d="M 545.5,559.5 C 546.5,559.5 547.5,559.5 548.5,559.5C 548.5,560.5 548.5,561.5 548.5,562.5C 545.433,562.879 544.433,561.879 545.5,559.5 Z"/></g>
<g><path style="opacity:1" fill="#042b60" d="M 576.5,561.5 C 578.76,562.238 578.927,563.238 577,564.5C 575.272,563.648 575.105,562.648 576.5,561.5 Z"/></g>
<g><path style="opacity:1" fill="#234674" d="M 368.5,571.5 C 370.337,571.639 370.67,572.306 369.5,573.5C 368.702,573.043 368.369,572.376 368.5,571.5 Z"/></g>
<g><path style="opacity:1" fill="#042b60" d="M 1243.5,580.5 C 1245.76,581.238 1245.93,582.238 1244,583.5C 1242.27,582.648 1242.1,581.648 1243.5,580.5 Z"/></g>
<g><path style="opacity:1" fill="#234674" d="M 553.5,581.5 C 555.337,581.639 555.67,582.306 554.5,583.5C 553.702,583.043 553.369,582.376 553.5,581.5 Z"/></g>
<g><path style="opacity:1" fill="#234674" d="M 1151.5,582.5 C 1153.34,582.639 1153.67,583.306 1152.5,584.5C 1151.7,584.043 1151.37,583.376 1151.5,582.5 Z"/></g>
<g><path style="opacity:1" fill="#1f3b6c" d="M 625.5,587.5 C 628.275,587.834 628.941,589.167 627.5,591.5C 625.889,590.68 625.222,589.346 625.5,587.5 Z"/></g>
<g><path style="opacity:1" fill="#234674" d="M 1064.5,588.5 C 1066.34,588.639 1066.67,589.306 1065.5,590.5C 1064.7,590.043 1064.37,589.376 1064.5,588.5 Z"/></g>
<g><path style="opacity:1" fill="#042b60" d="M 35.5,591.5 C 37.7602,592.238 37.9269,593.238 36,594.5C 34.2716,593.648 34.105,592.648 35.5,591.5 Z"/></g>
<g><path style="opacity:1" fill="#042b60" d="M 109.5,604.5 C 111.76,605.238 111.927,606.238 110,607.5C 108.272,606.648 108.105,605.648 109.5,604.5 Z"/></g>
<g><path style="opacity:1" fill="#234674" d="M 754.5,615.5 C 756.337,615.639 756.67,616.306 755.5,617.5C 754.702,617.043 754.369,616.376 754.5,615.5 Z"/></g>
<g><path style="opacity:1" fill="#133768" d="M 644.5,618.5 C 647.861,619.203 648.194,620.537 645.5,622.5C 643.358,621.563 643.024,620.23 644.5,618.5 Z"/></g>
<g><path style="opacity:1" fill="#415b83" d="M 854.5,619.5 C 855.675,619.281 856.675,619.614 857.5,620.5C 855.948,621.798 854.948,621.465 854.5,619.5 Z"/></g>
<g><path style="opacity:1" fill="#234674" d="M 921.5,621.5 C 923.337,621.639 923.67,622.306 922.5,623.5C 921.702,623.043 921.369,622.376 921.5,621.5 Z"/></g>
<g><path style="opacity:1" fill="#415b83" d="M 992.5,623.5 C 993.675,623.281 994.675,623.614 995.5,624.5C 993.948,625.798 992.948,625.465 992.5,623.5 Z"/></g>
<g><path style="opacity:1" fill="#234674" d="M 287.5,630.5 C 289.337,630.639 289.67,631.306 288.5,632.5C 287.702,632.043 287.369,631.376 287.5,630.5 Z"/></g>
<g><path style="opacity:1" fill="#133768" d="M 582.5,634.5 C 585.861,635.203 586.194,636.537 583.5,638.5C 581.358,637.563 581.024,636.23 582.5,634.5 Z"/></g>
<g><path style="opacity:1" fill="#234674" d="M 479.5,638.5 C 481.337,638.639 481.67,639.306 480.5,640.5C 479.702,640.043 479.369,639.376 479.5,638.5 Z"/></g>
<g><path style="opacity:1" fill="#314b78" d="M 272.5,650.5 C 274.465,650.948 274.798,651.948 273.5,653.5C 272.614,652.675 272.281,651.675 272.5,650.5 Z"/></g>
<g><path style="opacity:1" fill="#314b78" d="M 877.5,661.5 C 879.465,661.948 879.798,662.948 878.5,664.5C 877.614,663.675 877.281,662.675 877.5,661.5 Z"/></g>
<g><path style="opacity:1" fill="#042b60" d="M 135.5,665.5 C 137.76,666.238 137.927,667.238 136,668.5C 134.272,667.648 134.105,666.648 135.5,665.5 Z"/></g>
<g><path style="opacity:1" fill="#133768" d="M 160.5,664.5 C 163.861,665.203 164.194,666.537 161.5,668.5C 159.358,667.563 159.024,666.23 160.5,664.5 Z"/></g>
<g><path style="opacity:1" fill="#234674" d="M 1101.5,665.5 C 1103.34,665.639 1103.67,666.306 1102.5,667.5C 1101.7,667.043 1101.37,666.376 1101.5,665.5 Z"/></g>
<g><path style="opacity:1" fill="#234674" d="M 1004.5,670.5 C 1006.34,670.639 1006.67,671.306 1005.5,672.5C 1004.7,672.043 1004.37,671.376 1004.5,670.5 Z"/></g>
<g><path style="opacity:1" fill="#234674" d="M 17.5,675.5 C 19.337,675.639 19.6704,676.306 18.5,677.5C 17.7025,677.043 17.3691,676.376 17.5,675.5 Z"/></g>
<g><path style="opacity:1" fill="#042b60" d="M 49.5,675.5 C 51.7602,676.238 51.9269,677.238 50,678.5C 48.2716,677.648 48.105,676.648 49.5,675.5 Z"/></g>
<g><path style="opacity:1" fill="#042b60" d="M 451.5,677.5 C 453.76,678.238 453.927,679.238 452,680.5C 450.272,679.648 450.105,678.648 451.5,677.5 Z"/></g>
<g><path style="opacity:1" fill="#042b60" d="M 1155.5,677.5 C 1157.76,678.238 1157.93,679.238 1156,680.5C 1154.27,679.648 1154.1,678.648 1155.5,677.5 Z"/></g>
<g><path style="opacity:1" fill="#415b83" d="M 560.5,686.5 C 561.675,686.281 562.675,686.614 563.5,687.5C 561.948,688.798 560.948,688.465 560.5,686.5 Z"/></g>
<g><path style="opacity:1" fill="#415b83" d="M 1160.5,702.5 C 1161.68,702.281 1162.68,702.614 1163.5,703.5C 1161.95,704.798 1160.95,704.465 1160.5,702.5 Z"/></g>
<g><path style="opacity:1" fill="#314b78" d="M 1246.5,710.5 C 1248.46,710.948 1248.8,711.948 1247.5,713.5C 1246.61,712.675 1246.28,711.675 1246.5,710.5 Z"/></g>
<g><path style="opacity:1" fill="#234674" d="M 1008.5,720.5 C 1010.34,720.639 1010.67,721.306 1009.5,722.5C 1008.7,722.043 1008.37,721.376 1008.5,720.5 Z"/></g>
<g><path style="opacity:1" fill="#314b78" d="M 969.5,722.5 C 971.465,722.948 971.798,723.948 970.5,725.5C 969.614,724.675 969.281,723.675 969.5,722.5 Z"/></g>
<g><path style="opacity:1" fill="#133768" d="M 610.5,731.5 C 613.861,732.203 614.194,733.537 611.5,735.5C 609.358,734.563 609.024,733.23 610.5,731.5 Z"/></g>
<g><path style="opacity:1" fill="#364e7a" d="M 664.5,732.5 C 665.5,732.5 666.5,732.5 667.5,732.5C 667.5,733.5 667.5,734.5 667.5,735.5C 664.433,735.879 663.433,734.879 664.5,732.5 Z"/></g>
<g><path style="opacity:1" fill="#314b78" d="M 120.5,742.5 C 122.465,742.948 122.798,743.948 121.5,745.5C 120.614,744.675 120.281,743.675 120.5,742.5 Z"/></g>
<g><path style="opacity:1" fill="#415b83" d="M 91.5,752.5 C 92.675,752.281 93.675,752.614 94.5,753.5C 92.9483,754.798 91.9483,754.465 91.5,752.5 Z"/></g>
<g><path style="opacity:1" fill="#042b60" d="M 184.5,753.5 C 186.76,754.238 186.927,755.238 185,756.5C 183.272,755.648 183.105,754.648 184.5,753.5 Z"/></g>
<g><path style="opacity:1" fill="#314b78" d="M 775.5,754.5 C 777.465,754.948 777.798,755.948 776.5,757.5C 775.614,756.675 775.281,755.675 775.5,754.5 Z"/></g>
<g><path style="opacity:1" fill="#042b60" d="M 460.5,758.5 C 462.76,759.238 462.927,760.238 461,761.5C 459.272,760.648 459.105,759.648 460.5,758.5 Z"/></g>
</svg>
